<?xml version="1.0" standalone="no"?>
<!DOCTYPE svg PUBLIC "-//W3C//DTD SVG 20010904//EN"
 "http://www.w3.org/TR/2001/REC-SVG-20010904/DTD/svg10.dtd">
<svg version="1.0" xmlns="http://www.w3.org/2000/svg"
 width="146.000000pt" height="160.000000pt" viewBox="0 0 146.000000 160.000000"
 preserveAspectRatio="xMidYMid meet">

<g transform="translate(0.000000,160.000000) scale(0.100000,-0.100000)"
fill="#000000" stroke="none">
<path d="M583 165 c-33 -14 -43 -32 -43 -75 0 -42 9 -59 42 -76 35 -18 61 -11
88 23 25 33 26 73 0 105 -25 32 -49 39 -87 23z m70 -24 c4 -4 10 -24 13 -43 5
-28 2 -40 -15 -57 -26 -26 -45 -27 -71 -1 -56 56 15 153 73 101z"/>
<path d="M10 90 c0 -64 3 -80 15 -80 12 0 15 16 15 80 0 64 -3 80 -15 80 -12
0 -15 -16 -15 -80z"/>
<path d="M130 91 c0 -95 18 -110 22 -19 l3 63 35 -60 c20 -33 44 -61 53 -63
15 -3 17 7 17 77 0 47 -4 81 -10 81 -5 0 -10 -25 -10 -55 0 -30 -3 -55 -7 -55
-5 0 -22 24 -38 53 -17 28 -38 53 -48 55 -15 3 -17 -6 -17 -77z"/>
<path d="M360 90 c0 -47 4 -80 10 -80 6 0 10 16 10 35 0 33 2 35 35 35 19 0
35 5 35 10 0 6 -16 10 -35 10 -31 0 -35 3 -35 25 0 23 4 25 40 25 22 0 40 5
40 10 0 6 -22 10 -50 10 l-50 0 0 -80z"/>
<path d="M790 150 c-26 -26 -27 -89 -2 -121 25 -29 75 -30 105 -1 25 26 15 42
-12 18 -11 -10 -31 -16 -47 -14 -22 2 -30 10 -38 35 -17 62 41 107 86 66 25
-22 36 -8 13 17 -24 26 -79 26 -105 0z"/>
<path d="M1000 90 c0 -47 4 -80 10 -80 6 0 10 33 10 80 0 47 -4 80 -10 80 -6
0 -10 -33 -10 -80z"/>
<path d="M1100 160 c0 -5 14 -10 30 -10 l30 0 0 -70 c0 -40 4 -70 10 -70 6 0
10 30 10 70 0 68 1 70 25 70 14 0 25 5 25 10 0 6 -28 10 -65 10 -37 0 -65 -4
-65 -10z"/>
<path d="M1336 131 c14 -22 28 -58 31 -80 6 -46 23 -56 23 -14 0 14 14 50 30
80 20 34 26 53 17 53 -7 0 -21 -13 -30 -30 -10 -16 -21 -30 -25 -30 -4 0 -16
14 -25 30 -10 17 -25 30 -33 30 -11 0 -8 -10 12 -39z"/>
</g>
</svg>
